Strange lights descend on the city of Los Angeles, drawing people outside like moths to a flame where an extraterrestrial force threatens to swallow the entire human population off the face of the Earth...
 
http://www.imdb.com/title/tt1564585/

Audio: English.   Subs: Dutch, English (srt).


Na een feestje wordt een groep vrienden midden in de nacht gewekt door een eng licht dat door het raam naar binnen schijnt. Als motten aangetrokken door een vlam lokt het licht mensen naar buiten waar ze plotseling in het niets verdwijnen. Snel ontdekken ze dat een buitenaardse kracht probeert de gehele mensheid op te slokken. Nu moet de groep overlevenden vechten voor hun vrijheid terwijl de wereld zijn geheimen prijs geeft...
 
http://www.moviemeter.nl/film/68064

Audio: Engels.    Ondertitels: Engels, Nederlands (srt).

General
Complete name                    : Skyline-AC3-XviD-BRRip 2010 TBS\Skyline-AC3-XviD-BRRip 2010 TBS.avi
Format                           : AVI
Format/Info                      : Audio Video Interleave
File size                        : 1.46 GiB
Duration                         : 1h 28mn
Overall bit rate                 : 2 354 Kbps
Writing application              : VirtualDubMod 1.5.4.1 (build 2178/release)
Writing library                  : VirtualDubMod build 2178/release
Source                           : Skyline.AC3D.DL.720p.BluRay.x264-Vetax

Video
ID                               : 0
Format                           : MPEG-4 Visual
Format profile                   : Simple@L3
Format settings, BVOP            : No
Format settings, QPel            : No
Format settings, GMC             : No warppoints
Format settings, Matrix          : Default (H.263)
Codec ID                         : XVID
Codec ID/Hint                    : XviD
Duration                         : 1h 28mn
Bit rate                         : 1 896 Kbps
Width                            : 720 pixels
Height                           : 400 pixels
Display aspect ratio             : 16:9
Frame rate                       : 25.000 fps
Resolution                       : 8 bits
Colorimetry                      : 4:2:0
Scan type                        : Progressive
Bits/(Pixel*Frame)               : 0.263
Stream size                      : 1.18 GiB (81%)
Writing library                  : XviD 1.1.2 (UTC 2006-11-01)

Audio
ID                               : 1
Format                           : AC-3
Format/Info                      : Audio Coding 3
Codec ID                         : 2000
Duration                         : 1h 28mn
Bit rate mode                    : Constant
Bit rate                         : 448 Kbps
Channel(s)                       : 6 channels
Channel positions                : Front: L C R, Surround: L R, LFE
Sampling rate                    : 48.0 KHz
Stream size                      : 284 MiB (19%)
Alignment                        : Split accross interleaves
Interleave, duration             : 40 ms (1.00 video frame)
Interleave, preload duration     : 500 ms

Thanks to Simply Releases Toppers for the Dutch subs.

Blackbeard  TBS.